<mxfile host="Electron" modified="2024-10-31T12:41:19.676Z" agent="Mozilla/5.0 (Macintosh; Intel Mac OS X 10_15_7) AppleWebKit/537.36 (KHTML, like Gecko) draw.io/22.1.21 Chrome/120.0.6099.109 Electron/28.1.0 Safari/537.36" etag="iPj2-RpU9QDpm8H6GVX6" version="22.1.21" type="device">
  <diagram name="Page-1" id="rhBoVrnCfaDdI42P0tf9">
    <mxGraphModel dx="954" dy="674" grid="0" gridSize="10" guides="1" tooltips="1" connect="1" arrows="1" fold="1" page="1" pageScale="1" pageWidth="827" pageHeight="1169" math="0" shadow="0">
      <root>
        <mxCell id="0" />
        <mxCell id="1" parent="0" />
        <mxCell id="bhb2pXB_bHwz2wUfJVtS-10" value="" style="rounded=0;whiteSpace=wrap;html=1;" vertex="1" parent="1">
          <mxGeometry x="47.5" y="67.5" width="652.5" height="192.5" as="geometry" />
        </mxCell>
        <mxCell id="bhb2pXB_bHwz2wUfJVtS-4" style="edgeStyle=orthogonalEdgeStyle;rounded=0;orthogonalLoop=1;jettySize=auto;html=1;" edge="1" parent="1" source="bhb2pXB_bHwz2wUfJVtS-1" target="bhb2pXB_bHwz2wUfJVtS-5">
          <mxGeometry relative="1" as="geometry">
            <mxPoint x="240" y="157.5" as="targetPoint" />
          </mxGeometry>
        </mxCell>
        <mxCell id="bhb2pXB_bHwz2wUfJVtS-1" value="" style="dashed=0;outlineConnect=0;html=1;align=center;labelPosition=center;verticalLabelPosition=bottom;verticalAlign=top;shape=mxgraph.weblogos.github" vertex="1" parent="1">
          <mxGeometry x="70" y="120" width="75" height="75" as="geometry" />
        </mxCell>
        <mxCell id="bhb2pXB_bHwz2wUfJVtS-2" value="Github Repo" style="text;html=1;strokeColor=none;fillColor=none;align=center;verticalAlign=middle;whiteSpace=wrap;rounded=0;" vertex="1" parent="1">
          <mxGeometry x="77.5" y="200" width="60" height="30" as="geometry" />
        </mxCell>
        <mxCell id="bhb2pXB_bHwz2wUfJVtS-5" value="" style="rounded=1;whiteSpace=wrap;html=1;" vertex="1" parent="1">
          <mxGeometry x="210" y="127.5" width="120" height="60" as="geometry" />
        </mxCell>
        <mxCell id="bhb2pXB_bHwz2wUfJVtS-8" style="edgeStyle=orthogonalEdgeStyle;rounded=0;orthogonalLoop=1;jettySize=auto;html=1;entryX=0;entryY=0.5;entryDx=0;entryDy=0;" edge="1" parent="1" source="bhb2pXB_bHwz2wUfJVtS-6" target="bhb2pXB_bHwz2wUfJVtS-7">
          <mxGeometry relative="1" as="geometry" />
        </mxCell>
        <mxCell id="bhb2pXB_bHwz2wUfJVtS-6" value="&lt;b&gt;Actions&lt;/b&gt;&lt;br&gt;terraform plan" style="text;html=1;align=center;verticalAlign=middle;resizable=0;points=[];autosize=1;strokeColor=none;fillColor=none;" vertex="1" parent="1">
          <mxGeometry x="220" y="137.5" width="100" height="40" as="geometry" />
        </mxCell>
        <mxCell id="bhb2pXB_bHwz2wUfJVtS-17" style="edgeStyle=orthogonalEdgeStyle;rounded=0;orthogonalLoop=1;jettySize=auto;html=1;" edge="1" parent="1" source="bhb2pXB_bHwz2wUfJVtS-7" target="bhb2pXB_bHwz2wUfJVtS-9">
          <mxGeometry relative="1" as="geometry" />
        </mxCell>
        <mxCell id="bhb2pXB_bHwz2wUfJVtS-7" value="&lt;b style=&quot;border-color: var(--border-color);&quot;&gt;Actions&lt;/b&gt;&lt;br style=&quot;border-color: var(--border-color);&quot;&gt;terraform apply" style="rounded=1;whiteSpace=wrap;html=1;" vertex="1" parent="1">
          <mxGeometry x="380" y="127.5" width="120" height="60" as="geometry" />
        </mxCell>
        <mxCell id="bhb2pXB_bHwz2wUfJVtS-9" value="&lt;b style=&quot;border-color: var(--border-color);&quot;&gt;Actions&lt;/b&gt;&lt;br style=&quot;border-color: var(--border-color);&quot;&gt;terraform destroy" style="rounded=1;whiteSpace=wrap;html=1;" vertex="1" parent="1">
          <mxGeometry x="550" y="127.5" width="120" height="60" as="geometry" />
        </mxCell>
        <mxCell id="bhb2pXB_bHwz2wUfJVtS-11" value="" style="verticalLabelPosition=bottom;html=1;verticalAlign=top;align=center;strokeColor=none;fillColor=#00BEF2;shape=mxgraph.azure.github_code;pointerEvents=1;" vertex="1" parent="1">
          <mxGeometry x="40" y="30" width="50" height="50" as="geometry" />
        </mxCell>
        <mxCell id="bhb2pXB_bHwz2wUfJVtS-12" value="Github Managed Environment" style="text;html=1;strokeColor=none;fillColor=none;align=center;verticalAlign=middle;whiteSpace=wrap;rounded=0;" vertex="1" parent="1">
          <mxGeometry x="90" y="40" width="180" height="30" as="geometry" />
        </mxCell>
        <mxCell id="bhb2pXB_bHwz2wUfJVtS-13" value="" style="outlineConnect=0;dashed=0;verticalLabelPosition=bottom;verticalAlign=top;align=center;html=1;shape=mxgraph.aws3.s3;fillColor=#E05243;gradientColor=none;" vertex="1" parent="1">
          <mxGeometry x="137.5" y="315" width="76.5" height="93" as="geometry" />
        </mxCell>
        <mxCell id="bhb2pXB_bHwz2wUfJVtS-14" value="Remote State &lt;br&gt;in S3" style="text;html=1;strokeColor=none;fillColor=none;align=center;verticalAlign=middle;whiteSpace=wrap;rounded=0;" vertex="1" parent="1">
          <mxGeometry x="134.88" y="416" width="90.25" height="30" as="geometry" />
        </mxCell>
        <mxCell id="bhb2pXB_bHwz2wUfJVtS-15" value="" style="sketch=0;outlineConnect=0;fontColor=#232F3E;gradientColor=none;fillColor=#DD344C;strokeColor=none;dashed=0;verticalLabelPosition=bottom;verticalAlign=top;align=center;html=1;fontSize=12;fontStyle=0;aspect=fixed;pointerEvents=1;shape=mxgraph.aws4.role;" vertex="1" parent="1">
          <mxGeometry x="313" y="326" width="78" height="44" as="geometry" />
        </mxCell>
        <mxCell id="bhb2pXB_bHwz2wUfJVtS-16" value="IAM" style="text;html=1;strokeColor=none;fillColor=none;align=center;verticalAlign=middle;whiteSpace=wrap;rounded=0;" vertex="1" parent="1">
          <mxGeometry x="325" y="370" width="60" height="30" as="geometry" />
        </mxCell>
      </root>
    </mxGraphModel>
  </diagram>
</mxfile>
